<svg width="71" height="63" viewBox="0 0 71 63" fill="none" xmlns="http://www.w3.org/2000/svg">
<path d="M69.574 54.6504H62.1625C67.082 48.6613 69.7915 41.1726 69.7915 33.5636C69.7915 15.1389 54.6284 0.14917 35.9886 0.14917C17.3496 0.14917 2.18572 15.1396 2.18572 33.5636C2.18572 41.1739 4.89378 48.6626 9.81262 54.6504H2.40744C1.62541 54.6504 0.990723 55.2328 0.990723 55.9505V60.9651C0.990723 61.6827 1.62541 62.2652 2.40744 62.2652H22.6318C23.4138 62.2652 24.0485 61.6827 24.0485 60.9651V55.3791C24.0485 55.0696 23.9288 54.7713 23.7106 54.5366L23.632 54.4514C23.5527 54.365 23.4606 54.2889 23.3593 54.2252C16.3989 49.7983 12.0744 41.8818 12.0744 33.563C12.0744 20.1418 22.8025 9.22338 35.9886 9.22338C49.174 9.22338 59.9021 20.1425 59.9021 33.563C59.9021 41.9169 55.5506 49.8503 48.5478 54.2681C48.1632 54.5106 47.9337 54.911 47.9337 55.3388V60.9638C47.9337 61.6814 48.5683 62.2639 49.3504 62.2639H69.574C70.3561 62.2639 70.9907 61.6814 70.9907 60.9638V55.9492C70.9907 55.2322 70.3575 54.6504 69.574 54.6504Z" fill="#856A65"/>
</svg>
