<svg width="32" height="30" viewBox="0 0 32 30" fill="none" xmlns="http://www.w3.org/2000/svg">
<path d="M15.3115 0.5H16.6523C20.2804 0.5 22.9571 0.501252 25.0117 0.757812C27.0552 1.01299 28.4082 1.51347 29.4316 2.45801C30.4301 3.4043 30.957 4.6552 31.2266 6.54883C31.4989 8.46219 31.5 10.9571 31.5 14.3457V15.6201C31.5 19.0174 31.499 21.517 31.2266 23.4326C30.9567 25.33 30.4289 26.5808 29.4287 27.5273C28.4145 28.4787 27.0714 28.9831 25.0332 29.2402C22.9836 29.4988 20.3077 29.5 16.6709 29.5H15.3291C11.7012 29.5 9.02456 29.4987 6.97461 29.2422C4.93533 28.987 3.59317 28.487 2.58887 27.5449C1.57935 26.598 1.04745 25.3465 0.775391 23.4512C0.500807 21.5381 0.5 19.0432 0.5 15.6543V14.3799C0.5 10.9744 0.50128 8.47054 0.771484 6.55469C1.03925 4.65645 1.56243 3.41004 2.55273 2.47266C3.56698 1.52126 4.91001 1.0169 6.94824 0.759766C8.99797 0.501181 11.6742 0.5 15.3115 0.5Z" fill="#9D8682" stroke="#856A65"/>
<g filter="url(#filter0_d_223_1525)">
<path d="M16.5784 21.6034C9.48088 21.6034 5.42013 16.9122 5.26123 9.11047H8.80997C8.93356 14.8385 11.5466 17.2521 13.6299 17.762V9.12747H16.9844V14.0566C19.0325 13.8527 21.1864 11.5921 21.9103 9.12747H25.2648C24.7175 11.728 23.0579 13.9717 20.7097 15.3484C23.3404 16.6062 25.2825 18.8838 26.0417 21.6034H22.3517C21.6631 19.2068 19.5445 17.4561 16.9844 17.1501V21.6034H16.5784Z" fill="white"/>
</g>
<defs>
<filter id="filter0_d_223_1525" x="1.26123" y="9.11047" width="28.7803" height="20.4929" filterUnits="userSpaceOnUse" color-interpolation-filters="sRGB">
<feFlood flood-opacity="0" result="BackgroundImageFix"/>
<feColorMatrix in="SourceAlpha" type="matrix" values="0 0 0 0 0 0 0 0 0 0 0 0 0 0 0 0 0 0 127 0" result="hardAlpha"/>
<feOffset dy="4"/>
<feGaussianBlur stdDeviation="2"/>
<feComposite in2="hardAlpha" operator="out"/>
<feColorMatrix type="matrix" values="0 0 0 0 0 0 0 0 0 0 0 0 0 0 0 0 0 0 0.25 0"/>
<feBlend mode="normal" in2="BackgroundImageFix" result="effect1_dropShadow_223_1525"/>
<feBlend mode="normal" in="SourceGraphic" in2="effect1_dropShadow_223_1525" result="shape"/>
</filter>
</defs>
</svg>
